<svg xmlns="http://www.w3.org/2000/svg" xmlns:xlink="http://www.w3.org/1999/xlink" width="567" zoomAndPan="magnify" viewBox="0 0 425.25 283.500005" height="378" preserveAspectRatio="xMidYMid meet" version="1.0"><defs><g/><clipPath id="f12392635c"><path d="M 0.667969 0.4375 L 380.875 0.4375 L 380.875 136.996094 L 0.667969 136.996094 Z M 0.667969 0.4375 " clip-rule="nonzero"/></clipPath><clipPath id="7d8db4ea1c"><path d="M 159 8 L 380.875 8 L 380.875 117 L 159 117 Z M 159 8 " clip-rule="nonzero"/></clipPath><clipPath id="aecf130c49"><rect x="0" width="222" y="0" height="109"/></clipPath><clipPath id="462af1956f"><path d="M 253 43 L 315 43 L 315 82 L 253 82 Z M 253 43 " clip-rule="nonzero"/></clipPath><clipPath id="bde24bb70c"><path d="M 254.851562 42.339844 L 315.179688 46.726562 L 312.445312 84.320312 L 252.117188 79.9375 Z M 254.851562 42.339844 " clip-rule="nonzero"/></clipPath><clipPath id="d7dbf36037"><path d="M 254.851562 42.339844 L 315.179688 46.726562 L 312.445312 84.320312 L 252.117188 79.9375 Z M 254.851562 42.339844 " clip-rule="nonzero"/></clipPath><clipPath id="ea14eb7d7b"><rect x="0" width="161" y="0" height="29"/></clipPath><clipPath id="aaf48fddbb"><path d="M 141 0.4375 L 168 0.4375 L 168 32 L 141 32 Z M 141 0.4375 " clip-rule="nonzero"/></clipPath><clipPath id="f57410380d"><path d="M 12 7 L 26.890625 7 L 26.890625 26 L 12 26 Z M 12 7 " clip-rule="nonzero"/></clipPath><clipPath id="537deb8751"><rect x="0" width="27" y="0" height="32"/></clipPath><clipPath id="5b1aa593bb"><path d="M 0.667969 5 L 149 5 L 149 136.996094 L 0.667969 136.996094 Z M 0.667969 5 " clip-rule="nonzero"/></clipPath><clipPath id="62ca059fca"><rect x="0" width="149" y="0" height="132"/></clipPath><clipPath id="d3cdfbb97a"><rect x="0" width="381" y="0" height="137"/></clipPath><clipPath id="9a1d4be65e"><rect x="0" width="381" y="0" height="137"/></clipPath></defs><g transform="matrix(1, 0, 0, 1, 7, 70)"><g clip-path="url(#9a1d4be65e)"><g clip-path="url(#f12392635c)"><g transform="matrix(1, 0, 0, 1, 0.000000000000000888, 0.000000000000028422)"><g clip-path="url(#d3cdfbb97a)"><g clip-path="url(#7d8db4ea1c)"><g transform="matrix(1, 0, 0, 1, 159, 8)"><g clip-path="url(#aecf130c49)"><g fill="#000000" fill-opacity="1"><g transform="translate(1.123989, 90.205495)"><g><path d="M 22.78125 -25.578125 L 54.03125 -26.828125 L 54.03125 0 L 2.515625 0 L 2.515625 -63.03125 L 25.03125 -63.03125 Z M 22.78125 -25.578125 "/></g></g></g><g fill="#000000" fill-opacity="1"><g transform="translate(56.769225, 90.205495)"><g><path d="M 26.828125 1.34375 C 18.785156 1.34375 12.484375 -0.769531 7.921875 -5 C 3.359375 -9.226562 1.078125 -15.066406 1.078125 -22.515625 C 1.078125 -30.015625 3.359375 -35.863281 7.921875 -40.0625 C 12.484375 -44.269531 18.785156 -46.375 26.828125 -46.375 C 34.929688 -46.375 41.28125 -44.269531 45.875 -40.0625 C 50.46875 -35.863281 52.765625 -30.015625 52.765625 -22.515625 C 52.765625 -15.066406 50.46875 -9.226562 45.875 -5 C 41.28125 -0.769531 34.929688 1.34375 26.828125 1.34375 Z M 26.828125 -19 C 32.835938 -19 35.84375 -20.171875 35.84375 -22.515625 C 35.84375 -23.585938 35.09375 -24.453125 33.59375 -25.109375 C 32.09375 -25.773438 29.835938 -26.109375 26.828125 -26.109375 C 23.953125 -26.109375 21.765625 -25.773438 20.265625 -25.109375 C 18.765625 -24.453125 18.015625 -23.585938 18.015625 -22.515625 C 18.015625 -20.171875 20.953125 -19 26.828125 -19 Z M 26.828125 -19 "/></g></g></g><g fill="#000000" fill-opacity="1"><g transform="translate(110.613638, 90.205495)"><g><path d="M 26.828125 1.34375 C 18.785156 1.34375 12.484375 -0.769531 7.921875 -5 C 3.359375 -9.226562 1.078125 -15.066406 1.078125 -22.515625 C 1.078125 -30.015625 3.359375 -35.863281 7.921875 -40.0625 C 12.484375 -44.269531 18.785156 -46.375 26.828125 -46.375 C 34.929688 -46.375 41.28125 -44.269531 45.875 -40.0625 C 50.46875 -35.863281 52.765625 -30.015625 52.765625 -22.515625 C 52.765625 -15.066406 50.46875 -9.226562 45.875 -5 C 41.28125 -0.769531 34.929688 1.34375 26.828125 1.34375 Z M 26.828125 -19 C 32.835938 -19 35.84375 -20.171875 35.84375 -22.515625 C 35.84375 -23.585938 35.09375 -24.453125 33.59375 -25.109375 C 32.09375 -25.773438 29.835938 -26.109375 26.828125 -26.109375 C 23.953125 -26.109375 21.765625 -25.773438 20.265625 -25.109375 C 18.765625 -24.453125 18.015625 -23.585938 18.015625 -22.515625 C 18.015625 -20.171875 20.953125 -19 26.828125 -19 Z M 26.828125 -19 "/></g></g></g><g fill="#000000" fill-opacity="1"><g transform="translate(164.458051, 90.205495)"><g><path d="M 21.34375 -12.421875 L 22.96875 0 L 1.984375 0 L 1.984375 -63.03125 L 23.5 -63.03125 L 20.078125 -25.296875 L 20.984375 -25.296875 L 26.5625 -45.03125 L 56.015625 -45.03125 L 25.484375 -23.59375 L 26.203125 -22.6875 C 27.046875 -23.644531 28.394531 -24.707031 30.25 -25.875 C 32.113281 -27.050781 34.25 -27.640625 36.65625 -27.640625 C 41.15625 -27.640625 44.828125 -26.421875 47.671875 -23.984375 C 50.523438 -21.554688 52.613281 -18.253906 53.9375 -14.078125 C 55.257812 -9.910156 55.890625 -5.21875 55.828125 0 L 32.234375 0 C 32.535156 -1.863281 32.742188 -3.976562 32.859375 -6.34375 C 32.984375 -8.71875 32.894531 -11 32.59375 -13.1875 C 32.289062 -15.382812 31.628906 -17.1875 30.609375 -18.59375 C 29.585938 -20 28.085938 -20.675781 26.109375 -20.625 C 24.253906 -20.625 22.90625 -19.84375 22.0625 -18.28125 C 21.21875 -16.71875 20.976562 -14.765625 21.34375 -12.421875 Z M 21.34375 -12.421875 "/></g></g></g></g></g></g><g clip-path="url(#462af1956f)"><g clip-path="url(#bde24bb70c)"><g clip-path="url(#d7dbf36037)"><path fill="#ffffff" d="M 275.195312 43.820312 L 277.324219 55.046875 L 314.277344 56.355469 L 278.613281 66.667969 L 282.640625 81.824219 L 269.359375 70.371094 L 254.269531 77.464844 L 262.835938 63.796875 L 253.914062 55.1875 L 267.070312 54.992188 Z M 275.195312 43.820312 " fill-opacity="1" fill-rule="nonzero"/></g></g></g><g transform="matrix(1, 0, 0, 1, 177, 102)"><g clip-path="url(#ea14eb7d7b)"><g fill="#000000" fill-opacity="1"><g transform="translate(1.938189, 21.848725)"><g><path d="M -0.25 -2.671875 L 1.671875 -4.65625 C 2.398438 -3.84375 3.15625 -3.238281 3.9375 -2.84375 C 4.726562 -2.445312 5.566406 -2.25 6.453125 -2.25 C 7.265625 -2.25 7.914062 -2.414062 8.40625 -2.75 C 8.894531 -3.082031 9.140625 -3.53125 9.140625 -4.09375 C 9.140625 -4.488281 8.976562 -4.8125 8.65625 -5.0625 C 8.34375 -5.3125 7.828125 -5.53125 7.109375 -5.71875 L 4.453125 -6.421875 C 3.421875 -6.679688 2.640625 -7.113281 2.109375 -7.71875 C 1.578125 -8.332031 1.3125 -9.082031 1.3125 -9.96875 C 1.3125 -11.3125 1.800781 -12.378906 2.78125 -13.171875 C 3.757812 -13.960938 5.078125 -14.359375 6.734375 -14.359375 C 7.867188 -14.359375 8.972656 -14.144531 10.046875 -13.71875 C 11.117188 -13.300781 12.039062 -12.710938 12.8125 -11.953125 L 10.984375 -9.890625 C 10.296875 -10.566406 9.570312 -11.070312 8.8125 -11.40625 C 8.0625 -11.75 7.28125 -11.921875 6.46875 -11.921875 C 5.738281 -11.921875 5.15625 -11.773438 4.71875 -11.484375 C 4.28125 -11.191406 4.0625 -10.796875 4.0625 -10.296875 C 4.0625 -9.929688 4.203125 -9.628906 4.484375 -9.390625 C 4.773438 -9.160156 5.238281 -8.957031 5.875 -8.78125 L 8.390625 -8.171875 C 9.597656 -7.878906 10.5 -7.425781 11.09375 -6.8125 C 11.695312 -6.195312 12 -5.429688 12 -4.515625 C 12 -3.097656 11.472656 -1.957031 10.421875 -1.09375 C 9.367188 -0.226562 7.96875 0.203125 6.21875 0.203125 C 4.9375 0.203125 3.738281 -0.0390625 2.625 -0.53125 C 1.519531 -1.03125 0.5625 -1.742188 -0.25 -2.671875 Z M -0.25 -2.671875 "/></g></g></g><g fill="#000000" fill-opacity="1"><g transform="translate(14.761983, 21.848725)"><g><path d="M 2.046875 -3.15625 L 3.109375 -8.21875 L 0.984375 -8.21875 L 1.484375 -10.546875 L 3.609375 -10.546875 L 4.171875 -13.234375 L 7.015625 -13.859375 L 6.3125 -10.546875 L 9.25 -10.546875 L 8.765625 -8.21875 L 5.828125 -8.21875 L 4.84375 -3.609375 C 4.726562 -3.085938 4.769531 -2.71875 4.96875 -2.5 C 5.175781 -2.28125 5.570312 -2.171875 6.15625 -2.171875 C 6.363281 -2.171875 6.566406 -2.179688 6.765625 -2.203125 C 6.972656 -2.234375 7.203125 -2.273438 7.453125 -2.328125 L 6.953125 -0.078125 C 6.710938 -0.0234375 6.410156 0.0195312 6.046875 0.0625 C 5.679688 0.113281 5.34375 0.140625 5.03125 0.140625 C 3.863281 0.140625 3.019531 -0.144531 2.5 -0.71875 C 1.976562 -1.289062 1.828125 -2.101562 2.046875 -3.15625 Z M 2.046875 -3.15625 "/></g></g></g><g fill="#000000" fill-opacity="1"><g transform="translate(23.479753, 21.848725)"><g><path d="M 2.59375 0.5 L 2.9375 -0.015625 L 1.109375 -10.546875 L 4 -10.546875 L 5.09375 -3.109375 L 9.625 -10.546875 L 12.609375 -10.546875 L 5.1875 1.25 C 4.507812 2.320312 3.796875 3.097656 3.046875 3.578125 C 2.304688 4.054688 1.445312 4.296875 0.46875 4.296875 C 0.164062 4.296875 -0.113281 4.273438 -0.375 4.234375 C -0.632812 4.191406 -0.890625 4.144531 -1.140625 4.09375 L -0.640625 1.71875 C -0.503906 1.757812 -0.351562 1.789062 -0.1875 1.8125 C -0.0195312 1.832031 0.15625 1.84375 0.34375 1.84375 C 0.8125 1.84375 1.226562 1.734375 1.59375 1.515625 C 1.957031 1.296875 2.289062 0.957031 2.59375 0.5 Z M 2.59375 0.5 "/></g></g></g><g fill="#000000" fill-opacity="1"><g transform="translate(35.211304, 21.848725)"><g><path d="M 5.8125 -14.765625 L 2.671875 0 L -0.046875 0 L 2.96875 -14.15625 Z M 5.8125 -14.765625 "/></g></g></g><g fill="#000000" fill-opacity="1"><g transform="translate(40.369177, 21.848725)"><g><path d="M 9.921875 -1.09375 C 9.265625 -0.632812 8.617188 -0.300781 7.984375 -0.09375 C 7.359375 0.113281 6.664062 0.21875 5.90625 0.21875 C 5.132812 0.21875 4.414062 0.09375 3.75 -0.15625 C 3.09375 -0.40625 2.53125 -0.75 2.0625 -1.1875 C 1.59375 -1.632812 1.222656 -2.164062 0.953125 -2.78125 C 0.691406 -3.40625 0.5625 -4.082031 0.5625 -4.8125 C 0.5625 -5.613281 0.710938 -6.375 1.015625 -7.09375 C 1.328125 -7.8125 1.738281 -8.4375 2.25 -8.96875 C 2.757812 -9.5 3.359375 -9.921875 4.046875 -10.234375 C 4.742188 -10.546875 5.484375 -10.703125 6.265625 -10.703125 C 6.953125 -10.703125 7.59375 -10.570312 8.1875 -10.3125 C 8.78125 -10.0625 9.285156 -9.710938 9.703125 -9.265625 C 10.128906 -8.816406 10.457031 -8.28125 10.6875 -7.65625 C 10.925781 -7.03125 11.046875 -6.351562 11.046875 -5.625 C 11.046875 -5.476562 11.035156 -5.316406 11.015625 -5.140625 C 11.003906 -4.972656 10.984375 -4.707031 10.953125 -4.34375 L 3.25 -4.34375 C 3.375 -3.675781 3.695312 -3.128906 4.21875 -2.703125 C 4.738281 -2.285156 5.367188 -2.078125 6.109375 -2.078125 C 6.554688 -2.078125 6.972656 -2.144531 7.359375 -2.28125 C 7.753906 -2.414062 8.097656 -2.609375 8.390625 -2.859375 Z M 6.125 -8.390625 C 5.519531 -8.390625 4.972656 -8.195312 4.484375 -7.8125 C 4.003906 -7.4375 3.65625 -6.9375 3.4375 -6.3125 L 8.5 -6.3125 C 8.375 -6.9375 8.097656 -7.4375 7.671875 -7.8125 C 7.253906 -8.195312 6.738281 -8.390625 6.125 -8.390625 Z M 6.125 -8.390625 "/></g></g></g><g fill="#000000" fill-opacity="1"><g transform="translate(52.323222, 21.848725)"><g/></g></g><g fill="#000000" fill-opacity="1"><g transform="translate(56.692245, 21.848725)"><g><path d="M -0.25 -2.671875 L 1.671875 -4.65625 C 2.398438 -3.84375 3.15625 -3.238281 3.9375 -2.84375 C 4.726562 -2.445312 5.566406 -2.25 6.453125 -2.25 C 7.265625 -2.25 7.914062 -2.414062 8.40625 -2.75 C 8.894531 -3.082031 9.140625 -3.53125 9.140625 -4.09375 C 9.140625 -4.488281 8.976562 -4.8125 8.65625 -5.0625 C 8.34375 -5.3125 7.828125 -5.53125 7.109375 -5.71875 L 4.453125 -6.421875 C 3.421875 -6.679688 2.640625 -7.113281 2.109375 -7.71875 C 1.578125 -8.332031 1.3125 -9.082031 1.3125 -9.96875 C 1.3125 -11.3125 1.800781 -12.378906 2.78125 -13.171875 C 3.757812 -13.960938 5.078125 -14.359375 6.734375 -14.359375 C 7.867188 -14.359375 8.972656 -14.144531 10.046875 -13.71875 C 11.117188 -13.300781 12.039062 -12.710938 12.8125 -11.953125 L 10.984375 -9.890625 C 10.296875 -10.566406 9.570312 -11.070312 8.8125 -11.40625 C 8.0625 -11.75 7.28125 -11.921875 6.46875 -11.921875 C 5.738281 -11.921875 5.15625 -11.773438 4.71875 -11.484375 C 4.28125 -11.191406 4.0625 -10.796875 4.0625 -10.296875 C 4.0625 -9.929688 4.203125 -9.628906 4.484375 -9.390625 C 4.773438 -9.160156 5.238281 -8.957031 5.875 -8.78125 L 8.390625 -8.171875 C 9.597656 -7.878906 10.5 -7.425781 11.09375 -6.8125 C 11.695312 -6.195312 12 -5.429688 12 -4.515625 C 12 -3.097656 11.472656 -1.957031 10.421875 -1.09375 C 9.367188 -0.226562 7.96875 0.203125 6.21875 0.203125 C 4.9375 0.203125 3.738281 -0.0390625 2.625 -0.53125 C 1.519531 -1.03125 0.5625 -1.742188 -0.25 -2.671875 Z M -0.25 -2.671875 "/></g></g></g><g fill="#000000" fill-opacity="1"><g transform="translate(69.516039, 21.848725)"><g><path d="M 3.96875 -11.796875 C 3.59375 -11.796875 3.269531 -11.929688 3 -12.203125 C 2.726562 -12.472656 2.59375 -12.800781 2.59375 -13.1875 C 2.59375 -13.664062 2.765625 -14.078125 3.109375 -14.421875 C 3.460938 -14.773438 3.867188 -14.953125 4.328125 -14.953125 C 4.703125 -14.953125 5.023438 -14.816406 5.296875 -14.546875 C 5.566406 -14.273438 5.703125 -13.953125 5.703125 -13.578125 C 5.703125 -13.109375 5.523438 -12.691406 5.171875 -12.328125 C 4.828125 -11.972656 4.425781 -11.796875 3.96875 -11.796875 Z M 4.890625 -10.546875 L 2.671875 0 L -0.046875 0 L 2.1875 -10.546875 Z M 4.890625 -10.546875 "/></g></g></g><g fill="#000000" fill-opacity="1"><g transform="translate(74.673913, 21.848725)"><g><path d="M -0.046875 0 L 2.1875 -10.546875 L 4.890625 -10.546875 L 4.71875 -9.71875 C 5.132812 -10.039062 5.566406 -10.285156 6.015625 -10.453125 C 6.472656 -10.617188 6.953125 -10.703125 7.453125 -10.703125 C 8.140625 -10.703125 8.726562 -10.550781 9.21875 -10.25 C 9.71875 -9.945312 10.097656 -9.53125 10.359375 -9 C 10.890625 -9.550781 11.460938 -9.972656 12.078125 -10.265625 C 12.703125 -10.554688 13.359375 -10.703125 14.046875 -10.703125 C 14.617188 -10.703125 15.132812 -10.585938 15.59375 -10.359375 C 16.050781 -10.140625 16.421875 -9.835938 16.703125 -9.453125 C 16.984375 -9.078125 17.171875 -8.617188 17.265625 -8.078125 C 17.359375 -7.535156 17.335938 -6.953125 17.203125 -6.328125 L 15.84375 0 L 13.125 0 L 14.421875 -6.09375 C 14.554688 -6.75 14.476562 -7.289062 14.1875 -7.71875 C 13.90625 -8.144531 13.46875 -8.359375 12.875 -8.359375 C 12.488281 -8.359375 12.113281 -8.265625 11.75 -8.078125 C 11.382812 -7.898438 11.035156 -7.625 10.703125 -7.25 C 10.703125 -7.09375 10.691406 -6.9375 10.671875 -6.78125 C 10.648438 -6.632812 10.628906 -6.484375 10.609375 -6.328125 L 9.25 0 L 6.53125 0 L 7.828125 -6.046875 C 7.960938 -6.734375 7.890625 -7.289062 7.609375 -7.71875 C 7.328125 -8.144531 6.878906 -8.359375 6.265625 -8.359375 C 5.890625 -8.359375 5.53125 -8.273438 5.1875 -8.109375 C 4.851562 -7.953125 4.535156 -7.710938 4.234375 -7.390625 L 2.671875 0 Z M -0.046875 0 "/></g></g></g><g fill="#000000" fill-opacity="1"><g transform="translate(92.938697, 21.848725)"><g><path d="M -0.953125 4.234375 L 2.1875 -10.546875 L 4.875 -10.546875 L 4.78125 -10.015625 C 5.15625 -10.234375 5.546875 -10.398438 5.953125 -10.515625 C 6.367188 -10.628906 6.789062 -10.6875 7.21875 -10.6875 C 7.882812 -10.6875 8.503906 -10.5625 9.078125 -10.3125 C 9.660156 -10.0625 10.15625 -9.71875 10.5625 -9.28125 C 10.976562 -8.851562 11.304688 -8.335938 11.546875 -7.734375 C 11.796875 -7.140625 11.921875 -6.5 11.921875 -5.8125 C 11.921875 -4.988281 11.765625 -4.210938 11.453125 -3.484375 C 11.140625 -2.765625 10.71875 -2.132812 10.1875 -1.59375 C 9.664062 -1.0625 9.046875 -0.640625 8.328125 -0.328125 C 7.617188 -0.015625 6.859375 0.140625 6.046875 0.140625 C 5.429688 0.140625 4.851562 0.046875 4.3125 -0.140625 C 3.769531 -0.335938 3.296875 -0.628906 2.890625 -1.015625 L 1.765625 4.234375 Z M 6.515625 -8.34375 C 6.097656 -8.34375 5.695312 -8.273438 5.3125 -8.140625 C 4.9375 -8.003906 4.597656 -7.804688 4.296875 -7.546875 L 3.40625 -3.40625 C 3.65625 -3.039062 4.007812 -2.75 4.46875 -2.53125 C 4.925781 -2.320312 5.421875 -2.21875 5.953125 -2.21875 C 6.878906 -2.21875 7.660156 -2.539062 8.296875 -3.1875 C 8.941406 -3.84375 9.265625 -4.632812 9.265625 -5.5625 C 9.265625 -6.34375 9.003906 -7 8.484375 -7.53125 C 7.960938 -8.070312 7.304688 -8.34375 6.515625 -8.34375 Z M 6.515625 -8.34375 "/></g></g></g><g fill="#000000" fill-opacity="1"><g transform="translate(105.762491, 21.848725)"><g><path d="M 5.8125 -14.765625 L 2.671875 0 L -0.046875 0 L 2.96875 -14.15625 Z M 5.8125 -14.765625 "/></g></g></g><g fill="#000000" fill-opacity="1"><g transform="translate(110.920365, 21.848725)"><g><path d="M 3.96875 -11.796875 C 3.59375 -11.796875 3.269531 -11.929688 3 -12.203125 C 2.726562 -12.472656 2.59375 -12.800781 2.59375 -13.1875 C 2.59375 -13.664062 2.765625 -14.078125 3.109375 -14.421875 C 3.460938 -14.773438 3.867188 -14.953125 4.328125 -14.953125 C 4.703125 -14.953125 5.023438 -14.816406 5.296875 -14.546875 C 5.566406 -14.273438 5.703125 -13.953125 5.703125 -13.578125 C 5.703125 -13.109375 5.523438 -12.691406 5.171875 -12.328125 C 4.828125 -11.972656 4.425781 -11.796875 3.96875 -11.796875 Z M 4.890625 -10.546875 L 2.671875 0 L -0.046875 0 L 2.1875 -10.546875 Z M 4.890625 -10.546875 "/></g></g></g><g fill="#000000" fill-opacity="1"><g transform="translate(116.078238, 21.848725)"><g><path d="M 1.484375 -10.546875 L 3.765625 -10.546875 L 4.046875 -11.84375 C 4.273438 -12.925781 4.753906 -13.757812 5.484375 -14.34375 C 6.210938 -14.925781 7.132812 -15.21875 8.25 -15.21875 C 8.59375 -15.21875 8.945312 -15.1875 9.3125 -15.125 C 9.6875 -15.0625 9.988281 -14.984375 10.21875 -14.890625 L 9.75 -12.578125 C 9.519531 -12.660156 9.289062 -12.722656 9.0625 -12.765625 C 8.832031 -12.804688 8.597656 -12.828125 8.359375 -12.828125 C 7.898438 -12.828125 7.535156 -12.722656 7.265625 -12.515625 C 6.992188 -12.304688 6.8125 -11.992188 6.71875 -11.578125 L 6.5 -10.546875 L 9.28125 -10.546875 L 8.796875 -8.21875 L 6.015625 -8.21875 L 4.25 0 L 1.53125 0 L 3.28125 -8.21875 L 0.984375 -8.21875 Z M 1.484375 -10.546875 "/></g></g></g><g fill="#000000" fill-opacity="1"><g transform="translate(124.917363, 21.848725)"><g><path d="M 3.96875 -11.796875 C 3.59375 -11.796875 3.269531 -11.929688 3 -12.203125 C 2.726562 -12.472656 2.59375 -12.800781 2.59375 -13.1875 C 2.59375 -13.664062 2.765625 -14.078125 3.109375 -14.421875 C 3.460938 -14.773438 3.867188 -14.953125 4.328125 -14.953125 C 4.703125 -14.953125 5.023438 -14.816406 5.296875 -14.546875 C 5.566406 -14.273438 5.703125 -13.953125 5.703125 -13.578125 C 5.703125 -13.109375 5.523438 -12.691406 5.171875 -12.328125 C 4.828125 -11.972656 4.425781 -11.796875 3.96875 -11.796875 Z M 4.890625 -10.546875 L 2.671875 0 L -0.046875 0 L 2.1875 -10.546875 Z M 4.890625 -10.546875 "/></g></g></g><g fill="#000000" fill-opacity="1"><g transform="translate(130.075236, 21.848725)"><g><path d="M 9.921875 -1.09375 C 9.265625 -0.632812 8.617188 -0.300781 7.984375 -0.09375 C 7.359375 0.113281 6.664062 0.21875 5.90625 0.21875 C 5.132812 0.21875 4.414062 0.09375 3.75 -0.15625 C 3.09375 -0.40625 2.53125 -0.75 2.0625 -1.1875 C 1.59375 -1.632812 1.222656 -2.164062 0.953125 -2.78125 C 0.691406 -3.40625 0.5625 -4.082031 0.5625 -4.8125 C 0.5625 -5.613281 0.710938 -6.375 1.015625 -7.09375 C 1.328125 -7.8125 1.738281 -8.4375 2.25 -8.96875 C 2.757812 -9.5 3.359375 -9.921875 4.046875 -10.234375 C 4.742188 -10.546875 5.484375 -10.703125 6.265625 -10.703125 C 6.953125 -10.703125 7.59375 -10.570312 8.1875 -10.3125 C 8.78125 -10.0625 9.285156 -9.710938 9.703125 -9.265625 C 10.128906 -8.816406 10.457031 -8.28125 10.6875 -7.65625 C 10.925781 -7.03125 11.046875 -6.351562 11.046875 -5.625 C 11.046875 -5.476562 11.035156 -5.316406 11.015625 -5.140625 C 11.003906 -4.972656 10.984375 -4.707031 10.953125 -4.34375 L 3.25 -4.34375 C 3.375 -3.675781 3.695312 -3.128906 4.21875 -2.703125 C 4.738281 -2.285156 5.367188 -2.078125 6.109375 -2.078125 C 6.554688 -2.078125 6.972656 -2.144531 7.359375 -2.28125 C 7.753906 -2.414062 8.097656 -2.609375 8.390625 -2.859375 Z M 6.125 -8.390625 C 5.519531 -8.390625 4.972656 -8.195312 4.484375 -7.8125 C 4.003906 -7.4375 3.65625 -6.9375 3.4375 -6.3125 L 8.5 -6.3125 C 8.375 -6.9375 8.097656 -7.4375 7.671875 -7.8125 C 7.253906 -8.195312 6.738281 -8.390625 6.125 -8.390625 Z M 6.125 -8.390625 "/></g></g></g><g fill="#000000" fill-opacity="1"><g transform="translate(142.029281, 21.848725)"><g><path d="M 7.65625 0 L 7.765625 -0.53125 C 7.390625 -0.3125 6.992188 -0.144531 6.578125 -0.03125 C 6.160156 0.0820312 5.734375 0.140625 5.296875 0.140625 C 4.640625 0.140625 4.023438 0.015625 3.453125 -0.234375 C 2.878906 -0.484375 2.378906 -0.820312 1.953125 -1.25 C 1.535156 -1.6875 1.207031 -2.203125 0.96875 -2.796875 C 0.726562 -3.398438 0.609375 -4.046875 0.609375 -4.734375 C 0.609375 -5.554688 0.757812 -6.328125 1.0625 -7.046875 C 1.375 -7.773438 1.789062 -8.40625 2.3125 -8.9375 C 2.84375 -9.476562 3.46875 -9.90625 4.1875 -10.21875 C 4.90625 -10.53125 5.664062 -10.6875 6.46875 -10.6875 C 7.09375 -10.6875 7.675781 -10.585938 8.21875 -10.390625 C 8.757812 -10.203125 9.238281 -9.9375 9.65625 -9.59375 L 10.625 -14.15625 L 13.46875 -14.765625 L 10.34375 0 Z M 3.28125 -4.984375 C 3.28125 -4.179688 3.539062 -3.515625 4.0625 -2.984375 C 4.59375 -2.460938 5.25 -2.203125 6.03125 -2.203125 C 6.445312 -2.203125 6.84375 -2.269531 7.21875 -2.40625 C 7.601562 -2.550781 7.945312 -2.753906 8.25 -3.015625 L 9.140625 -7.203125 C 8.859375 -7.535156 8.488281 -7.800781 8.03125 -8 C 7.582031 -8.207031 7.097656 -8.3125 6.578125 -8.3125 C 5.660156 -8.3125 4.878906 -7.988281 4.234375 -7.34375 C 3.597656 -6.695312 3.28125 -5.910156 3.28125 -4.984375 Z M 3.28125 -4.984375 "/></g></g></g><g fill="#000000" fill-opacity="1"><g transform="translate(154.853075, 21.848725)"><g><path d="M 1.78125 -3.078125 C 2.1875 -3.078125 2.519531 -2.9375 2.78125 -2.65625 C 3.039062 -2.382812 3.171875 -2.046875 3.171875 -1.640625 C 3.171875 -1.148438 2.988281 -0.71875 2.625 -0.34375 C 2.257812 0.0195312 1.84375 0.203125 1.375 0.203125 C 0.96875 0.203125 0.625 0.0664062 0.34375 -0.203125 C 0.0703125 -0.484375 -0.0625 -0.828125 -0.0625 -1.234375 C -0.0625 -1.734375 0.117188 -2.164062 0.484375 -2.53125 C 0.847656 -2.894531 1.28125 -3.078125 1.78125 -3.078125 Z M 1.78125 -3.078125 "/></g></g></g></g></g><g clip-path="url(#aaf48fddbb)"><g transform="matrix(1, 0, 0, 1, 141, 0.000000000000028422)"><g clip-path="url(#537deb8751)"><g fill="#000000" fill-opacity="1"><g transform="translate(0.923022, 25.805012)"><g><path d="M 7.234375 0.375 C 6.097656 0.375 5.1875 0.25 4.5 0 C 3.8125 -0.238281 3.289062 -0.554688 2.9375 -0.953125 C 2.59375 -1.359375 2.363281 -1.785156 2.25 -2.234375 C 2.144531 -2.679688 2.09375 -3.109375 2.09375 -3.515625 L 2.09375 -6.890625 L 0.109375 -6.890625 L 0.109375 -12.75 C 1.566406 -12.75 2.566406 -13.109375 3.109375 -13.828125 C 3.648438 -14.554688 3.921875 -15.523438 3.921875 -16.734375 L 7.421875 -16.734375 L 7.421875 -12.75 L 10.78125 -12.75 L 10.78125 -6.890625 L 7.421875 -6.890625 L 7.421875 -6.5 C 7.421875 -6.257812 7.53125 -6.03125 7.75 -5.8125 C 7.96875 -5.59375 8.394531 -5.484375 9.03125 -5.484375 C 9.269531 -5.484375 9.523438 -5.503906 9.796875 -5.546875 C 10.078125 -5.585938 10.363281 -5.660156 10.65625 -5.765625 L 10.65625 -0.28125 C 10.175781 -0.09375 9.640625 0.0625 9.046875 0.1875 C 8.453125 0.3125 7.847656 0.375 7.234375 0.375 Z M 7.234375 0.375 "/></g></g></g><g clip-path="url(#f57410380d)"><g fill="#000000" fill-opacity="1"><g transform="translate(11.88882, 25.805012)"><g><path d="M 6.21875 0 L 0.5625 0 L 0.5625 -17.84375 L 6.78125 -17.84375 L 5.84375 -7.90625 L 6.171875 -7.90625 C 6.253906 -8.851562 6.460938 -9.722656 6.796875 -10.515625 C 7.128906 -11.304688 7.59375 -11.9375 8.1875 -12.40625 C 8.78125 -12.882812 9.507812 -13.125 10.375 -13.125 C 11.851562 -13.125 12.894531 -12.65625 13.5 -11.71875 C 14.101562 -10.789062 14.40625 -9.507812 14.40625 -7.875 L 14.40625 0 L 8.421875 0 L 8.921875 -4.59375 C 9.003906 -5.238281 8.960938 -5.816406 8.796875 -6.328125 C 8.628906 -6.835938 8.222656 -7.09375 7.578125 -7.09375 C 6.941406 -7.09375 6.476562 -6.816406 6.1875 -6.265625 C 5.90625 -5.710938 5.796875 -5.101562 5.859375 -4.4375 Z M 6.21875 0 "/></g></g></g></g></g></g></g><g clip-path="url(#5b1aa593bb)"><g transform="matrix(1, 0, 0, 1, 0.000000000000000888, 5)"><g clip-path="url(#62ca059fca)"><g fill="#000000" fill-opacity="1"><g transform="translate(1.029668, 99.128085)"><g><path d="M 2.359375 -54.21875 L 2.359375 -57.359375 C 7.316406 -57.441406 12.363281 -58.160156 17.5 -59.515625 C 22.644531 -60.867188 27.523438 -62.847656 32.140625 -65.453125 C 36.753906 -68.066406 40.78125 -71.3125 44.21875 -75.1875 C 47.664062 -79.0625 50.128906 -83.523438 51.609375 -88.578125 L 54.875 -88.578125 L 54.875 0 L 26.265625 0 L 26.265625 -59.1875 C 18.421875 -55.875 10.453125 -54.21875 2.359375 -54.21875 Z M 2.359375 -54.21875 "/></g></g></g><g fill="#000000" fill-opacity="1"><g transform="translate(55.647083, 99.128085)"><g><path d="M 46.640625 -89.375 C 52.828125 -89.375 58.578125 -88.21875 63.890625 -85.90625 C 69.203125 -83.59375 73.90625 -80.367188 78 -76.234375 C 82.09375 -72.097656 85.269531 -67.304688 87.53125 -61.859375 C 89.800781 -56.421875 90.9375 -50.566406 90.9375 -44.296875 C 90.9375 -38.023438 89.800781 -32.164062 87.53125 -26.71875 C 85.269531 -21.269531 82.09375 -16.476562 78 -12.34375 C 73.90625 -8.207031 69.203125 -4.960938 63.890625 -2.609375 C 58.578125 -0.253906 52.828125 0.921875 46.640625 0.921875 C 40.546875 0.921875 34.816406 -0.253906 29.453125 -2.609375 C 24.097656 -4.960938 19.394531 -8.207031 15.34375 -12.34375 C 11.300781 -16.476562 8.125 -21.269531 5.8125 -26.71875 C 3.507812 -32.164062 2.359375 -38.023438 2.359375 -44.296875 C 2.359375 -50.566406 3.507812 -56.421875 5.8125 -61.859375 C 8.125 -67.304688 11.300781 -72.097656 15.34375 -76.234375 C 19.394531 -80.367188 24.097656 -83.59375 29.453125 -85.90625 C 34.816406 -88.21875 40.546875 -89.375 46.640625 -89.375 Z M 68.71875 -8.75 C 71.25 -10.320312 72.535156 -13.347656 72.578125 -17.828125 C 72.617188 -22.316406 71.59375 -27.628906 69.5 -33.765625 C 67.414062 -39.910156 64.328125 -46.207031 60.234375 -52.65625 C 56.140625 -59.1875 51.828125 -64.757812 47.296875 -69.375 C 42.765625 -73.988281 38.472656 -77.253906 34.421875 -79.171875 C 30.378906 -81.085938 27.09375 -81.265625 24.5625 -79.703125 C 22.125 -78.128906 20.859375 -75.117188 20.765625 -70.671875 C 20.679688 -66.234375 21.707031 -60.941406 23.84375 -54.796875 C 25.976562 -48.660156 29.050781 -42.328125 33.0625 -35.796875 C 37.15625 -29.265625 41.488281 -23.691406 46.0625 -19.078125 C 50.632812 -14.460938 54.941406 -11.21875 58.984375 -9.34375 C 63.035156 -7.46875 66.28125 -7.269531 68.71875 -8.75 Z M 68.71875 -8.75 "/></g></g></g></g></g></g></g></g></g></g></g></svg>